<?xml version="1.0" encoding="UTF-8" standalone="no"?>
<svg width="460px" height="71px" viewBox="0 0 460 71" version="1.1" xmlns="http://www.w3.org/2000/svg" xmlns:xlink="http://www.w3.org/1999/xlink" xmlns:sketch="http://www.bohemiancoding.com/sketch/ns">
    <!-- Generator: Sketch 3.3.2 (12043) - http://www.bohemiancoding.com/sketch -->
    <title>Slice 1</title>
    <desc>Created with Sketch.</desc>
    <defs></defs>
    <g id="Page-1" stroke="none" stroke-width="1" fill="none" fill-rule="evenodd" sketch:type="MSPage">
        <g id="Newsletter" sketch:type="MSLayerGroup" fill="#D02630">
            <g id="Page-1" sketch:type="MSShapeGroup">
                <g id="Newsletter">
                    <g id="Page-1">
                        <path d="M58.6672502,0.740733443 L44.0594158,0.740733443 L44.1518704,45.8177049 L15.5833842,0.740733443 L0.14345803,0.740733443 L0.14345803,67.0720726 L14.7512924,67.0720726 L14.7512924,21.9951011 L43.5046879,67.0720726 L58.6672502,67.0720726 L58.6672502,0.740733443 L58.6672502,0.740733443 Z M99.069931,52.2825751 C96.9434744,57.3304874 93.9849257,59.1902445 88.3451921,59.1902445 C81.5035482,59.1902445 77.343089,54.5851315 77.0657251,46.5261838 L113.123038,46.5261838 L113.123038,44.4893069 C113.123038,28.3714115 103.23039,17.6556678 88.4376468,17.6556678 C73.8298124,17.6556678 63.1050733,28.4599713 63.1050733,43.160909 C63.1050733,58.4817657 73.2750845,68.5775903 88.7150107,68.5775903 C100.456751,68.5775903 109.609761,62.20128 112.290946,52.2825751 L99.069931,52.2825751 L99.069931,52.2825751 Z M77.1581797,38.1129966 C77.8978169,31.3824469 82.1507307,27.2201331 88.3451921,27.2201331 C94.4471989,27.2201331 98.330294,31.1167672 99.069931,38.1129966 L77.1581797,38.1129966 L77.1581797,38.1129966 Z M189.490577,18.9840657 L175.252561,18.9840657 L165.914642,53.5224132 L157.223905,18.9840657 L143.910436,18.9840657 L135.404608,53.610973 L125.974234,18.9840657 L111.458854,18.9840657 L127.453508,67.0720726 L141.783979,67.0720726 L150.382261,32.7994047 L159.350362,67.0720726 L173.588378,67.0720726 L189.490577,18.9840657 L189.490577,18.9840657 Z M232.944261,32.9765245 C232.574443,28.5485312 231.649896,26.0688549 229.430985,23.6777385 C225.732799,19.6925447 219.353428,17.5671078 211.124965,17.5671078 C197.534131,17.5671078 189.213213,22.9692596 189.213213,31.7366863 C189.213213,36.8731585 191.247215,40.5926729 195.31522,42.7181096 C198.273769,44.3121872 200.585135,45.0206661 209.8306,46.9689831 C213.528785,47.766022 216.302425,48.4745008 217.319426,48.9173002 C219.908156,49.8914587 221.110067,51.3084166 221.110067,53.3452935 C221.110067,57.0648078 217.59679,59.3673643 211.864602,59.3673643 C205.207867,59.3673643 201.8795,56.8876881 201.232317,51.3969764 L188.103757,51.3969764 C188.843394,62.6440793 196.794494,68.4004706 211.679692,68.4004706 C225.825254,68.4004706 234.608445,62.20128 234.608445,52.1054553 C234.608445,43.8693878 229.52344,40.0613137 215.00806,37.227398 C204.283321,35.1019612 202.804046,34.3934823 202.804046,30.9396475 C202.804046,28.017172 205.762595,26.3345346 210.755146,26.3345346 C216.579789,26.3345346 219.353428,28.2828516 220.093065,32.9765245 L232.944261,32.9765245 L232.944261,32.9765245 Z M252.174828,0.740733443 L238.399086,0.740733443 L238.399086,67.0720726 L252.174828,67.0720726 L252.174828,0.740733443 L252.174828,0.740733443 Z M292.3926,52.2825751 C290.266143,57.3304874 287.307594,59.1902445 281.667861,59.1902445 C274.826217,59.1902445 270.665758,54.5851315 270.388394,46.5261838 L306.445707,46.5261838 L306.445707,44.4893069 C306.445707,28.3714115 296.553059,17.6556678 281.760316,17.6556678 C267.152481,17.6556678 256.427742,28.4599713 256.427742,43.160909 C256.427742,58.4817657 266.597753,68.5775903 282.03768,68.5775903 C293.77942,68.5775903 302.93243,62.20128 305.613615,52.2825751 L292.3926,52.2825751 L292.3926,52.2825751 Z M270.480849,38.1129966 C271.220486,31.3824469 275.4734,27.2201331 281.667861,27.2201331 C287.769868,27.2201331 291.652963,31.1167672 292.3926,38.1129966 L270.480849,38.1129966 L270.480849,38.1129966 Z M338.435015,18.9840657 L328.265003,18.9840657 L328.265003,4.46024778 L314.489261,4.46024778 L314.489261,18.9840657 L306.075888,18.9840657 L306.075888,27.9286121 L314.489261,27.9286121 L314.489261,50.0685784 C314.489261,58.216086 314.85908,60.3415229 316.430809,62.8211991 C318.742175,66.2750338 322.62527,67.6034318 330.299006,67.6034318 C332.702827,67.6034318 335.014193,67.5148719 338.435015,67.2491923 L338.435015,57.1533676 C337.14065,57.2419276 335.75383,57.3304874 335.014193,57.3304874 C329.004641,57.3304874 328.265003,56.6220084 328.265003,50.5999376 L328.265003,27.9286121 L338.435015,27.9286121 L338.435015,18.9840657 L338.435015,18.9840657 Z M372.088507,18.9840657 L361.918495,18.9840657 L361.918495,4.46024778 L348.142753,4.46024778 L348.142753,18.9840657 L339.72938,18.9840657 L339.72938,27.9286121 L348.142753,27.9286121 L348.142753,50.0685784 C348.142753,58.216086 348.512571,60.3415229 350.0843,62.8211991 C352.395667,66.2750338 356.278762,67.6034318 363.952498,67.6034318 C366.356318,67.6034318 368.667685,67.5148719 372.088507,67.2491923 L372.088507,57.1533676 C370.794142,57.2419276 369.407322,57.3304874 368.667685,57.3304874 C362.658133,57.3304874 361.918495,56.6220084 361.918495,50.5999376 L361.918495,27.9286121 L372.088507,27.9286121 L372.088507,18.9840657 L372.088507,18.9840657 Z M409.255275,52.2825751 C407.128818,57.3304874 404.170269,59.1902445 398.530536,59.1902445 C391.688892,59.1902445 387.528433,54.5851315 387.251069,46.5261838 L423.308382,46.5261838 L423.308382,44.4893069 C423.308382,28.3714115 413.415734,17.6556678 398.622991,17.6556678 C384.015156,17.6556678 373.290417,28.4599713 373.290417,43.160909 C373.290417,58.4817657 383.460428,68.5775903 398.900354,68.5775903 C410.642095,68.5775903 419.795105,62.20128 422.47629,52.2825751 L409.255275,52.2825751 L409.255275,52.2825751 Z M387.343524,38.1129966 C388.083161,31.3824469 392.336074,27.2201331 398.530536,27.2201331 C404.632543,27.2201331 408.515638,31.1167672 409.255275,38.1129966 L387.343524,38.1129966 L387.343524,38.1129966 Z M427.376386,18.9840657 L427.376386,67.0720726 L441.152129,67.0720726 L441.152129,46.9689831 C441.152129,41.5668314 441.706856,38.4672361 443.001222,36.0761197 C445.312588,31.8252462 449.842865,29.5226897 455.205235,29.7883693 C456.684509,29.8769292 457.609056,29.965489 459.735513,30.3197285 L459.735513,18.1870269 C459.180785,18.098467 458.810966,18.0099072 458.533602,18.0099072 C454.742962,17.5671078 450.397593,18.4527065 447.254135,20.3124637 C444.295587,22.083661 442.538948,24.1205379 440.504946,27.8400523 L440.504946,18.9840657 L427.376386,18.9840657 L427.376386,18.9840657 Z" id="Newsletter"></path>
                    </g>
                </g>
            </g>
        </g>
    </g>
</svg>