<?xml version="1.0" encoding="UTF-8" standalone="no"?>
<svg width="461px" height="72px" viewBox="0 0 461 72" version="1.1" xmlns="http://www.w3.org/2000/svg" xmlns:xlink="http://www.w3.org/1999/xlink" xmlns:sketch="http://www.bohemiancoding.com/sketch/ns">
    <!-- Generator: Sketch 3.3.3 (12081) - http://www.bohemiancoding.com/sketch -->
    <title>Newsletter Copy</title>
    <desc>Created with Sketch.</desc>
    <defs></defs>
    <g id="Page-1" stroke="none" stroke-width="1" fill="none" fill-rule="evenodd" sketch:type="MSPage">
        <g id="Newsletter" sketch:type="MSLayerGroup" transform="translate(-3.000000, 1.000000)" fill="#D02630">
            <g id="Page-1" sketch:type="MSShapeGroup">
                <path d="M61.6672502,-0.24853129 L47.0594158,-0.24853129 L47.1518704,46.8108845 L18.5833842,-0.24853129 L3.14345803,-0.24853129 L3.14345803,69 L17.7512924,69 L17.7512924,21.9405842 L46.5046879,69 L61.6672502,69 L61.6672502,-0.24853129 Z M102.069931,53.5600738 C99.9434744,58.8299887 96.9849257,60.7715363 91.3451921,60.7715363 C84.5035482,60.7715363 80.343089,55.9638946 80.0657251,47.5505217 L116.123038,47.5505217 L116.123038,45.4240648 C116.123038,28.5973189 106.23039,17.4103065 91.4376468,17.4103065 C76.8298124,17.4103065 66.1050733,28.6897735 66.1050733,44.0372451 C66.1050733,60.0318992 76.2750845,70.571729 91.7150107,70.571729 C103.456751,70.571729 112.609761,63.9149944 115.290946,53.5600738 L102.069931,53.5600738 Z M80.1581797,38.7673301 C80.8978169,31.7407769 85.1507307,27.3954084 91.3451921,27.3954084 C97.4471989,27.3954084 101.330294,31.4634129 102.069931,38.7673301 L80.1581797,38.7673301 Z M192.490577,18.7971262 L178.252561,18.7971262 L168.914642,54.8544389 L160.223905,18.7971262 L146.910436,18.7971262 L138.404608,54.9468935 L128.974234,18.7971262 L114.458854,18.7971262 L130.453508,69 L144.783979,69 L153.382261,33.2200513 L162.350362,69 L176.588378,69 L192.490577,18.7971262 Z M235.944261,33.4049606 C235.574443,28.7822282 234.649896,26.193498 232.430985,23.6972225 C228.732799,19.5367634 222.353428,17.3178518 214.124965,17.3178518 C200.534131,17.3178518 192.213213,22.9575853 192.213213,32.1105955 C192.213213,37.4729651 194.247215,41.3560603 198.31522,43.5749718 C201.273769,45.2391555 203.585135,45.9787927 212.8306,48.0127949 C216.528785,48.8448868 219.302425,49.5845239 220.319426,50.0467972 C222.908156,51.0637983 224.110067,52.5430727 224.110067,54.6695296 C224.110067,58.5526248 220.59679,60.9564456 214.864602,60.9564456 C208.207867,60.9564456 204.8795,58.3677155 204.232317,52.6355273 L191.103757,52.6355273 C191.843394,64.3772676 199.794494,70.3868197 214.679692,70.3868197 C228.825254,70.3868197 237.608445,63.9149944 237.608445,53.3751645 C237.608445,44.7768822 232.52344,40.8013324 218.00806,37.8427837 C207.283321,35.6238721 205.804046,34.8842349 205.804046,31.2785036 C205.804046,28.2275003 208.762595,26.470862 213.755146,26.470862 C219.579789,26.470862 222.353428,28.5048642 223.093065,33.4049606 L235.944261,33.4049606 Z M255.174828,-0.24853129 L241.399086,-0.24853129 L241.399086,69 L255.174828,69 L255.174828,-0.24853129 Z M295.3926,53.5600738 C293.266143,58.8299887 290.307594,60.7715363 284.667861,60.7715363 C277.826217,60.7715363 273.665758,55.9638946 273.388394,47.5505217 L309.445707,47.5505217 L309.445707,45.4240648 C309.445707,28.5973189 299.553059,17.4103065 284.760316,17.4103065 C270.152481,17.4103065 259.427742,28.6897735 259.427742,44.0372451 C259.427742,60.0318992 269.597753,70.571729 285.03768,70.571729 C296.77942,70.571729 305.93243,63.9149944 308.613615,53.5600738 L295.3926,53.5600738 Z M273.480849,38.7673301 C274.220486,31.7407769 278.4734,27.3954084 284.667861,27.3954084 C290.769868,27.3954084 294.652963,31.4634129 295.3926,38.7673301 L273.480849,38.7673301 Z M341.435015,18.7971262 L331.265003,18.7971262 L331.265003,3.63456392 L317.489261,3.63456392 L317.489261,18.7971262 L309.075888,18.7971262 L309.075888,28.1350456 L317.489261,28.1350456 L317.489261,51.2487076 C317.489261,59.7545352 317.85908,61.9734468 319.430809,64.5621769 C321.742175,68.1679082 325.62527,69.5547279 333.299006,69.5547279 C335.702827,69.5547279 338.014193,69.4622732 341.435015,69.1849093 L341.435015,58.6450794 C340.14065,58.7375341 338.75383,58.8299887 338.014193,58.8299887 C332.004641,58.8299887 331.265003,58.0903515 331.265003,51.8034355 L331.265003,28.1350456 L341.435015,28.1350456 L341.435015,18.7971262 Z M375.088507,18.7971262 L364.918495,18.7971262 L364.918495,3.63456392 L351.142753,3.63456392 L351.142753,18.7971262 L342.72938,18.7971262 L342.72938,28.1350456 L351.142753,28.1350456 L351.142753,51.2487076 C351.142753,59.7545352 351.512571,61.9734468 353.0843,64.5621769 C355.395667,68.1679082 359.278762,69.5547279 366.952498,69.5547279 C369.356318,69.5547279 371.667685,69.4622732 375.088507,69.1849093 L375.088507,58.6450794 C373.794142,58.7375341 372.407322,58.8299887 371.667685,58.8299887 C365.658133,58.8299887 364.918495,58.0903515 364.918495,51.8034355 L364.918495,28.1350456 L375.088507,28.1350456 L375.088507,18.7971262 Z M412.255275,53.5600738 C410.128818,58.8299887 407.170269,60.7715363 401.530536,60.7715363 C394.688892,60.7715363 390.528433,55.9638946 390.251069,47.5505217 L426.308382,47.5505217 L426.308382,45.4240648 C426.308382,28.5973189 416.415734,17.4103065 401.622991,17.4103065 C387.015156,17.4103065 376.290417,28.6897735 376.290417,44.0372451 C376.290417,60.0318992 386.460428,70.571729 401.900354,70.571729 C413.642095,70.571729 422.795105,63.9149944 425.47629,53.5600738 L412.255275,53.5600738 Z M390.343524,38.7673301 C391.083161,31.7407769 395.336074,27.3954084 401.530536,27.3954084 C407.632543,27.3954084 411.515638,31.4634129 412.255275,38.7673301 L390.343524,38.7673301 Z M430.376386,18.7971262 L430.376386,69 L444.152129,69 L444.152129,48.0127949 C444.152129,42.3730614 444.706856,39.1371487 446.001222,36.6408732 C448.312588,32.2030501 452.842865,29.7992293 458.205235,30.0765932 C459.684509,30.1690479 460.609056,30.2615025 462.735513,30.6313211 L462.735513,17.9650343 C462.180785,17.8725797 461.810966,17.7801251 461.533602,17.7801251 C457.742962,17.3178518 453.397593,18.2423983 450.254135,20.1839459 C447.295587,22.0330389 445.538948,24.1594958 443.504946,28.042591 L443.504946,18.7971262 L430.376386,18.7971262 Z" id="Newsletter"></path>
            </g>
        </g>
    </g>
</svg>